<?xml version="1.0" encoding="UTF-8" standalone="no"?>
<!-- Created with Inkscape (http://www.inkscape.org/) -->

<svg
   version="1.1"
   id="svg2"
   xml:space="preserve"
   width="246.66667"
   height="246.66667"
   viewBox="0 0 246.66667 246.66667"
   sodipodi:docname="rnblogo.svg"
   inkscape:version="1.1 (c68e22c387, 2021-05-23)"
   xmlns:inkscape="http://www.inkscape.org/namespaces/inkscape"
   xmlns:sodipodi="http://sodipodi.sourceforge.net/DTD/sodipodi-0.dtd"
   xmlns="http://www.w3.org/2000/svg"
   xmlns:svg="http://www.w3.org/2000/svg"><defs
     id="defs6"><clipPath
       clipPathUnits="userSpaceOnUse"
       id="clipPath16"><path
         d="M 0,185 H 185 V 0 H 0 Z"
         id="path14" /></clipPath></defs><sodipodi:namedview
     id="namedview4"
     pagecolor="#ffffff"
     bordercolor="#666666"
     borderopacity="1.0"
     inkscape:pageshadow="2"
     inkscape:pageopacity="0.0"
     inkscape:pagecheckerboard="0"
     showgrid="false"
     inkscape:zoom="1.6459459"
     inkscape:cx="45.87028"
     inkscape:cy="85.36125"
     inkscape:window-width="1920"
     inkscape:window-height="1001"
     inkscape:window-x="-9"
     inkscape:window-y="-9"
     inkscape:window-maximized="1"
     inkscape:current-layer="g8" /><g
     id="g8"
     inkscape:groupmode="layer"
     inkscape:label="rnblogo"
     transform="matrix(1.3333333,0,0,-1.3333333,0,246.66667)"><g
       id="g10"><g
         id="g12"
         clip-path="url(#clipPath16)"><g
           id="g18"
           transform="translate(37.0049,124.4551)"><path
             d="m 0,0 -3.68,-0.635 v 24.12 L 0,24.12 Z m 21.739,26.53 c 0,0.096 -0.323,0.64 -0.958,1.604 -0.646,0.953 -1.389,2.064 -2.24,3.351 -0.855,1.276 -1.701,2.552 -2.562,3.833 -0.851,1.282 -1.542,2.291 -2.087,3.039 -0.522,0.528 -1.344,1.361 -2.472,2.478 -1.111,1.123 -1.78,1.679 -1.984,1.679 H -25.095 V -106.29 l 21.415,26.683 v 59.479 H 0 v -59.479 l 21.58,-26.683 v 85.504 l -6.719,7.665 6.878,7.996 z m -1.604,-39.651 4.961,-5.737 v -97.808 l -27.018,33.408 -26.53,-33.578 V 46.352 H 9.436 c 0.101,0 0.521,-0.221 1.269,-0.646 0.743,-0.42 1.525,-0.964 2.319,-1.593 0.794,-0.641 1.56,-1.276 2.32,-1.923 0.748,-0.635 1.224,-1.111 1.439,-1.428 0.523,-0.857 1.277,-2.053 2.235,-3.601 0.969,-1.548 1.887,-3.096 2.79,-4.649 0.907,-1.542 1.7,-2.892 2.403,-4.06 0.703,-1.174 1.044,-1.826 1.044,-1.922 V -6.872 Z"
             style="fill:#3a4da1;fill-opacity:1;fill-rule:nonzero;stroke:none"
             id="path20" /></g><g
           id="g22"
           transform="translate(69.7666,18.9707)"><path
             d="m 0,0 19.663,29.393 v 60.431 l 5.285,-3.051 v -57.38 c 0.952,-1.383 1.837,-2.563 2.631,-3.583 0.793,-1.01 1.496,-1.985 2.154,-2.949 0.839,-1.293 1.702,-2.551 2.54,-3.844 0.863,-1.282 1.906,-2.79 3.13,-4.547 1.225,-1.758 2.722,-3.845 4.468,-6.249 1.77,-2.381 3.924,-5.386 6.486,-9.026 V 148.157 H 24.948 V 121.468 L 0,151.19 Z M 21.41,131.374 V 151.99 H 49.873 V -12.475 c -3.084,4.14 -5.874,8.018 -8.392,11.579 -2.517,3.595 -4.671,6.713 -6.486,9.355 -1.814,2.768 -3.47,5.206 -5.035,7.281 -1.542,2.086 -3.062,4.116 -4.559,6.157 l -3.198,4.468 -25.559,-38.521 v 173.569 z"
             style="fill:#3a4da1;fill-opacity:1;fill-rule:nonzero;stroke:none"
             id="path24" /></g><g
           id="g26"
           transform="translate(148.874,103.5103)">
           <path
             d="M 0,0 H -0.317 V 0.816 H 3.356 V -46.97 L 0,-48.898 Z M 3.356,20.945 -0.317,20.31 v 24.12 l 3.673,0.635 z m 21.728,26.53 c 0,0.096 -0.295,0.663 -0.952,1.684 -0.635,1.015 -1.384,2.143 -2.223,3.419 -0.862,1.287 -1.701,2.557 -2.54,3.85 -0.885,1.276 -1.565,2.29 -2.087,3.039 -0.226,0.312 -0.544,0.692 -0.974,1.111 -0.432,0.425 -0.885,0.856 -1.384,1.281 -0.454,0.42 -0.93,0.794 -1.338,1.123 -0.432,0.318 -0.703,0.476 -0.794,0.476 H -21.75 V -50.985 l 24.154,-34.689 22.68,35.517 V 0.487 l -6.849,7.337 6.849,7.995 z M 23.497,7.824 28.622,2.234 V -51.631 L 2.404,-92.535 -25.084,-52.743 v 120.04 h 37.876 c 0.091,0 0.521,-0.244 1.27,-0.726 0.726,-0.476 1.542,-1.031 2.404,-1.678 0.839,-0.635 1.679,-1.298 2.472,-1.99 0.817,-0.703 1.361,-1.316 1.678,-1.843 h -0.158 c 0.635,-0.958 1.405,-2.188 2.313,-3.68 0.907,-1.491 1.814,-2.954 2.721,-4.383 0.931,-1.446 1.656,-2.705 2.223,-3.765 0.59,-1.065 0.907,-1.661 0.907,-1.757 V 14.073 Z"
             style="fill:#3a4da1;fill-opacity:1;fill-rule:nonzero;stroke:none"
             id="path28" />
             </g>
             </g>
             </g>
             </g>
             </svg>
